<?xml version="1.0" encoding="utf-8"?>
<!-- Generator: Adobe Illustrator 22.1.0, SVG Export Plug-In . SVG Version: 6.00 Build 0)  -->
<svg version="1.1" id="Слой_1" xmlns="http://www.w3.org/2000/svg" xmlns:xlink="http://www.w3.org/1999/xlink" x="0px" y="0px"
	 viewBox="0 0 201 201" style="enable-background:new 0 0 201 201;" xml:space="preserve">
<style type="text/css">
	.st0{clip-path:url(#SVGID_4_);}
	.st1{clip-path:url(#SVGID_5_);fill:url(#SVGID_6_);}
	.st2{fill:#FFFFFF;}
	.st3{fill:#AFAFAF;}
	.st4{fill:#C9C8C8;}
	.st5{fill:#6B6966;}
	.st6{fill:#979695;}
	.st7{fill:#AAA1CA;}
</style>
<g id="ЌаправлЯющие_длЯ_монтажной_области">
</g>
<g id="после_ремонта">
</g>
<g id="генеральнаЯ">
	<g>
		<g>
			<defs>
				<polygon id="SVGID_1_" points="1,1 2,1 1,2 				"/>
			</defs>
			<defs>
				<polygon id="SVGID_3_" points="-1,-1 -2,-1 -1,-2 				"/>
			</defs>
			<clipPath id="SVGID_4_">
				<use xlink:href="#SVGID_1_"  style="overflow:visible;"/>
			</clipPath>
			<clipPath id="SVGID_5_" class="st0">
				<use xlink:href="#SVGID_3_"  style="overflow:visible;"/>
			</clipPath>
			
				<linearGradient id="SVGID_6_" gradientUnits="userSpaceOnUse" x1="100.5" y1="1.5" x2="100.5" y2="201.5" gradientTransform="matrix(1 0 0 -1 0 202)">
				<stop  offset="0" style="stop-color:#666666"/>
				<stop  offset="1.018322e-02" style="stop-color:#646464"/>
				<stop  offset="0.2068" style="stop-color:#404040"/>
				<stop  offset="0.4051" style="stop-color:#242424"/>
				<stop  offset="0.6033" style="stop-color:#101010"/>
				<stop  offset="0.8015" style="stop-color:#040404"/>
				<stop  offset="1" style="stop-color:#000000"/>
			</linearGradient>
			<circle class="st1" cx="100.5" cy="100.5" r="100"/>
		</g>
	</g>
	<g>
		<path class="st2" d="M169.6,102.1c-0.7,0-1.4,0.2-2,0.4c-1.1-1.1-2.6-1.8-4.2-1.8c-0.5,0-1,0.1-1.5,0.2c-1.3-2.6-4-4.3-7.1-4.3
			s-5.8,1.8-7.1,4.4c-0.6-0.2-1.2-0.3-1.9-0.3c-3.3,0-5.9,2.7-5.9,5.9c0,3.3,2.7,5.9,5.9,5.9c1.6,0,3.1-0.6,4.1-1.7
			c1.4,1,3,1.7,4.9,1.7c1.7,0,3.3-0.6,4.6-1.5c1,0.9,2.4,1.5,3.9,1.5c1.4,0,2.7-0.5,3.8-1.4c0.7,0.4,1.6,0.7,2.5,0.7
			c2.7,0,4.9-2.2,4.9-4.9C174.5,104.3,172.3,102.1,169.6,102.1z"/>
		<path class="st3" d="M163.4,113.3c-1.4,0-2.8-0.5-4-1.3c-1.4,0.9-3,1.3-4.6,1.3c-1.7,0-3.4-0.5-4.8-1.5c-1.2,1-2.6,1.5-4.2,1.5
			c-3.6,0-6.5-2.9-6.5-6.5s2.9-6.5,6.5-6.5c0.5,0,1,0.1,1.6,0.2c1.5-2.7,4.3-4.3,7.4-4.3c3.1,0,5.9,1.6,7.4,4.2
			c0.4-0.1,0.8-0.1,1.2-0.1c1.6,0,3.2,0.6,4.4,1.7c0.6-0.2,1.2-0.3,1.9-0.3c3,0,5.5,2.5,5.5,5.5s-2.5,5.5-5.5,5.5
			c-0.8,0-1.7-0.2-2.4-0.6C166.1,112.8,164.7,113.3,163.4,113.3z M159.5,110.4l0.4,0.3c1,0.9,2.2,1.3,3.5,1.3c1.2,0,2.4-0.4,3.4-1.2
			l0.3-0.3l0.4,0.2c0.7,0.4,1.4,0.6,2.2,0.6c2.4,0,4.3-1.9,4.3-4.3s-1.9-4.3-4.3-4.3c-0.6,0-1.2,0.1-1.8,0.4l-0.4,0.2l-0.3-0.3
			c-1-1-2.4-1.6-3.8-1.6c-0.4,0-0.9,0.1-1.3,0.2l-0.5,0.1l-0.2-0.4c-1.3-2.5-3.8-4-6.6-4s-5.3,1.6-6.6,4.1l-0.2,0.5l-0.5-0.2
			c-0.5-0.2-1.1-0.3-1.7-0.3c-2.9,0-5.3,2.4-5.3,5.3s2.4,5.3,5.3,5.3c1.4,0,2.7-0.5,3.7-1.5l0.4-0.4l0.4,0.3c1.3,1,2.9,1.5,4.5,1.5
			c1.5,0,3-0.5,4.3-1.4L159.5,110.4z"/>
		<path class="st3" d="M170.7,135.9c0,0.7-0.5,1.2-1.2,1.2h-24.2c0.3-1.5,0.3-1.4,0.4-2.4h23.8C170.2,134.7,170.7,135.3,170.7,135.9
			L170.7,135.9z"/>
		<path class="st2" d="M166.8,109.5c-1.4,0-2.5,1.1-2.5,2.5c0,0.7,0.3,1.3,0.7,1.8c-0.8,1.4-2.2,3.3-4.2,5.2
			c-4.9,4.7-11.2,6.6-18.5,5.8c-0.4,0-0.1,1.1,0.1,1.5c1.1,0.1,1.9,0.1,2.9,0.1c7.9,0,13.3-3.4,16.5-6.4c2.1-2,3.6-4.1,4.5-5.6
			c0.1,0,0.3,0,0.5,0c1.4,0,2.5-1.1,2.5-2.5C169.3,110.6,168.2,109.5,166.8,109.5z"/>
		<path class="st2" d="M174.3,97.9c0,1.5-1.2,2.6-2.6,2.6c-1.5,0-2.6-1.2-2.6-2.6c0-1.5,1.2-2.6,2.6-2.6
			C173.1,95.2,174.3,96.4,174.3,97.9z"/>
		<path class="st4" d="M171.6,100.9c-1.7,0-3-1.3-3-3s1.3-3,3-3s3,1.3,3,3S173.3,100.9,171.6,100.9z M171.6,95.6
			c-1.3,0-2.3,1-2.3,2.3s1,2.3,2.3,2.3s2.3-1,2.3-2.3C173.9,96.6,172.9,95.6,171.6,95.6z"/>
		<path class="st2" d="M166.4,94.8c0,0.9-0.7,1.6-1.6,1.6c-0.9,0-1.6-0.7-1.6-1.6s0.7-1.6,1.6-1.6C165.6,93.2,166.4,93.9,166.4,94.8
			z"/>
		<path class="st4" d="M164.7,96.7c-1.1,0-2-0.9-2-2s0.9-2,2-2s2,0.9,2,2C166.7,95.8,165.8,96.7,164.7,96.7z M164.7,93.5
			c-0.7,0-1.2,0.6-1.2,1.2c0,0.7,0.6,1.2,1.2,1.2s1.2-0.6,1.2-1.2C166,94.1,165.4,93.5,164.7,93.5z"/>
		<path class="st5" d="M67,91.9c-5.2,5.4-13.5,5.9-19.4,1.5c0.9-1,1.8-2.1,2.6-3.3c4.4-6.2,6.4-12.5,4.5-14.1
			c0.9,2.3-1.9,7.7-6.9,12.8c-3.7,3.8-7.7,6.5-10.4,7.2c-1.2,0.3-2.2,0.2-2.8-0.3c-1.9-1.8,1.1-7.8,6.5-13.4
			c0.2-0.2,0.4-0.4,0.6-0.6c0-3.8,1.4-7.5,4.2-10.4c5.7-5.8,15.1-5.9,20.9-0.2C72.6,76.7,72.7,86,67,91.9z"/>
		<path class="st6" d="M138.5,105.9l3.8,19.4c2.2,1.8,3.4,5.3,3.4,8.6c0,0,0,0,0,0.1c0.2,0,0.4,0.1,0.6,0.1h21.9
			c1.6,0,2.9-1.3,2.9-2.9l4.3-25.2C175.4,104.3,138.5,104.3,138.5,105.9z"/>
		<path class="st5" d="M87.9,86.6c-1.1-1.1-2.5-1.7-4-1.8c-0.1,0-0.2,0-0.3,0c-3,0-5.5,2.5-5.6,5.6L77.4,111v0.3l-0.1,0.2l-11,19.9
			c-0.7,1.3-0.9,2.9-0.5,4.4s1.4,2.7,2.7,3.4c0.8,0.5,1.8,0.7,2.8,0.7c2.1,0,4-1.1,5-3l12.5-22.6l0.6-23.7
			C89.5,89.2,88.9,87.7,87.9,86.6z"/>
		<path class="st7" d="M58.5,135.7h6c-0.2-0.9-0.2-1.8,0-2.7H39.8c-0.7,0-1.3,0.6-1.3,1.3c0,0.6,0.4,1.1,0.9,1.3l-1.1,7.6
			c-0.1,0.8,0.4,1.5,1.2,1.6c0.7,0.1,1.4-0.4,1.6-1.1c0.2,0.4,0.5,0.8,0.9,0.9c0.7,0.2,1.4-0.2,1.6-0.8c0,0,0-0.1,0.1-0.4
			c0.2,0.5,0.5,1,0.8,1c0.6,0.3,1.3,0.1,1.6-0.5c0,0,0.1-0.3,0.2-0.7c0.2,0.5,0.4,1,0.7,1.1c0.5,0.4,1.2,0.3,1.6-0.2
			c0.1,0,0.2-0.4,0.4-1.1c0.1,0.5,0.4,1,0.5,1.1c0.4,0.5,1.1,0.6,1.6,0.2c0.1,0,0.3-0.6,0.5-1.3c0.1,0.5,0.3,0.9,0.4,0.9
			c0.3,0.6,1,0.8,1.6,0.5c0.2,0,0.5-0.6,0.7-1.3c0.1,0.4,0.2,0.7,0.2,0.7c0.2,0.7,0.9,1,1.6,0.8c0.3,0,0.7-0.6,0.9-1.2v0.2
			c0.1,0.8,0.8,1.3,1.6,1.2c0.7-0.1,1.2-0.7,1.2-1.4c0-0.1,0-0.1,0-0.2L58.5,135.7z"/>
		<path class="st5" d="M143.5,127.8c-1.1-2-2.8-3.1-4.7-3.1c-12.2,0-18.1,0-20.8,0.1l7.3-6.2c0.1-0.1,3.3-2.6,3.8-7.4
			c0.3-1.4,0.2-2.8-0.1-4.2l-0.1-0.3c0-0.2-0.1-0.3-0.2-0.5c-0.6-2.4-2-4.7-4.1-7.1c-10.7-10.1-18.1-14.5-31.8-19
			c-2.1-0.7-4.3-1-6.3-1c-7.1,0-12.1,4.2-13.9,8.4c-0.7,1.6-0.8,3.4-0.4,5.3L64.6,104l-20,10.9c-3.4,1.8-4.6,6-2.8,9.4
			c0.6,1.1,1.4,1.9,2.3,2.5c2,1.3,4.7,1.5,7,0.3l23-12.5l0.9-1.3l1.1-2l0.6-20.6c0.1-3.7,3.1-6.7,6.7-6.7c0.1,0,0.2,0,0.3,0
			c3.8,0.1,6.8,3.3,6.7,7.1L90,107.5l14,7.8v0.3l-12,12.6c-0.1,0.1-0.1,0.1-0.2,0.2c-0.1,0.2-2,4.8-0.2,8.9c1,2.2,3,3.9,5.8,4.8
			c0.4,0.1,1.3,0.4,12,0.4c12,0,28.9-0.4,29-0.4c0.1,0,0.2,0,0.3,0l0,0c2,0,3.6-1,4.7-2.8C145.4,136,145.3,131.1,143.5,127.8z"/>
	</g>
</g>
<g id="химчистка">
</g>
<g id="эко_клининг">
</g>
<g id="мытье_окон">
</g>
<g id="уборка_офисов">
</g>
<g id="ежедневнаЯ_комплекснаЯ">
</g>
<g id="спецуслуги">
</g>
<g id="после_пожара">
</g>
<g id="премиум">
</g>
</svg>
