<?xml version="1.0" encoding="utf-8"?>
<!-- Generator: Adobe Illustrator 22.1.0, SVG Export Plug-In . SVG Version: 6.00 Build 0)  -->
<svg version="1.1" id="Слой_1" xmlns="http://www.w3.org/2000/svg" xmlns:xlink="http://www.w3.org/1999/xlink" x="0px" y="0px"
	 viewBox="0 0 201 201" style="enable-background:new 0 0 201 201;" xml:space="preserve">
<style type="text/css">
	.st0{clip-path:url(#SVGID_4_);}
	.st1{clip-path:url(#SVGID_5_);fill:url(#SVGID_6_);}
	.st2{fill:#AFAFAF;}
	.st3{fill:#979695;}
	.st4{fill:#8975A2;}
	.st5{fill:#838384;}
	.st6{fill:#6B6966;}
	.st7{fill:#AAA1CA;}
</style>
<g id="ЌаправлЯющие_длЯ_монтажной_области">
</g>
<g id="после_ремонта">
</g>
<g id="генеральнаЯ">
</g>
<g id="химчистка">
</g>
<g id="эко_клининг">
</g>
<g id="мытье_окон">
	<g>
		<g>
			<defs>
				<polygon id="SVGID_1_" points="1,1 2,1 1,2 				"/>
			</defs>
			<defs>
				<polygon id="SVGID_3_" points="-1,-1 -2,-1 -1,-2 				"/>
			</defs>
			<clipPath id="SVGID_4_">
				<use xlink:href="#SVGID_1_"  style="overflow:visible;"/>
			</clipPath>
			<clipPath id="SVGID_5_" class="st0">
				<use xlink:href="#SVGID_3_"  style="overflow:visible;"/>
			</clipPath>
			
				<linearGradient id="SVGID_6_" gradientUnits="userSpaceOnUse" x1="100.5" y1="1.5" x2="100.5" y2="201.5" gradientTransform="matrix(1 0 0 -1 0 202)">
				<stop  offset="0" style="stop-color:#666666"/>
				<stop  offset="1.018322e-02" style="stop-color:#646464"/>
				<stop  offset="0.2068" style="stop-color:#404040"/>
				<stop  offset="0.4051" style="stop-color:#242424"/>
				<stop  offset="0.6033" style="stop-color:#101010"/>
				<stop  offset="0.8015" style="stop-color:#040404"/>
				<stop  offset="1" style="stop-color:#000000"/>
			</linearGradient>
			<circle class="st1" cx="100.5" cy="100.5" r="100"/>
		</g>
	</g>
	<polygon class="st2" points="139.4,86.3 122.4,52.9 121.6,53.6 138.3,86.9 	"/>
	<polygon class="st2" points="131.5,79 132.5,78.4 124.5,62.4 123.7,63.1 	"/>
	<polygon class="st2" points="128.5,59.3 127.6,60 135.9,76.2 136.9,75.5 	"/>
	<polygon class="st3" points="151.7,136.3 151.7,133.3 86,117 85.8,118.9 	"/>
	<polygon class="st3" points="60.4,60.2 60.4,61.7 92.5,53.8 93.1,51.6 	"/>
	<polygon class="st3" points="100.4,51.8 151.7,39.1 151.7,36.1 101.1,49.5 	"/>
	
		<rect x="110.2" y="59.5" transform="matrix(0.3374 -0.9414 0.9414 0.3374 5.6846 152.3243)" class="st4" width="1.6" height="25.3"/>
	<polygon class="st3" points="101.8,97.9 103,98.4 104.2,95 	"/>
	<path class="st3" d="M122.3,78l-23.8-8.5L97.6,72l10.6,3.8l-2.5,7c0.4,0.2,0.9,0.4,1.2,0.8c0.4,0.3,0.7,0.7,1,1.1l2.8-7.9l10.6,3.8
		L122.3,78z"/>
	<path class="st5" d="M102.4,36.1l-1.9-0.6L84,91.6c-1.2,0.2-2.2,1.3-2.2,2.6c0,0.6,0.2,1.2,0.6,1.7l-0.3,3.4l3.1-0.1l0.3-2.7
		c0.9-0.4,1.6-1.3,1.6-2.4c0-0.8-0.4-1.6-1-2.1L102.4,36.1z"/>
	<path class="st6" d="M80,121.3c-1.5-3.8-2.7-7.8-3.7-11.5l-8.6,0.2c-2.8,0-5.1-2.2-5.2-5.1c0-1.4,0.5-2.7,1.4-3.7
		c1-1,2.3-1.6,3.6-1.6l5.3-0.1c-1.8-2.6-4.5-4.3-7.2-3.8c-0.1,0-0.1,0-0.2,0c-10.8,1.6-19.6,13.6-20.6,15c-0.5,0.7-0.8,1.6-0.7,2.5
		l0.6,17.4c0.1,2.2,1.9,3.9,4,3.9h0.1c2.2-0.1,4-2,3.9-4.2l-0.6-16c1.2-1.5,3-3.5,5.1-5.5c0,0.1,0,0.3,0,0.4
		c1.4,10.7,3.6,17,9.7,26.5c0.6,0.9,1.3,1.6,2,2.2c3.9-7.9,10.5-15.4,10.7-15.8l1.1,1c-0.1,0.1-6.9,7.9-10.7,15.7
		c1.4,1,2.9,1.4,4.3,1.5l3.5,0.5c-0.1,0.8,0.5,1.6,1.4,1.6h0.1c0.7,0,1.3-0.5,1.5-1.2l12.5,1.9l13,27.3c1.1,2.3,3.3,3.6,5.7,3.6
		c0.9,0,1.8-0.2,2.7-0.6c3.2-1.5,4.5-5.3,3-8.4l-14.4-30.3c-0.9-1.9-2.7-3.2-4.8-3.5L84,129.1c0,0,0,0,0-0.1c-0.5-0.7-1-1.5-1.4-2.3
		l1.6-17.1l-3.1,0.1L80,121.3z"/>
	<path class="st6" d="M69.8,92.4C76.1,92.2,81,87,80.9,80.7c0-1.3-0.3-2.6-0.7-3.7l-22,5.1C58.8,88,63.8,92.5,69.8,92.4z"/>
	<path class="st6" d="M57.5,81.1l22.7-5.3c0.8-0.2,1.4-1,1.2-1.9c-0.2-0.8-1-1.4-1.9-1.2l-0.7,0.2c-1.8-5.2-7.3-8.3-12.8-7
		s-9.1,6.5-8.4,11.9L56.8,78c-0.8,0.2-1.4,1-1.2,1.9C55.8,80.7,56.7,81.3,57.5,81.1z"/>
	<path class="st6" d="M106.8,90.1c1.4-1.7,1.2-4.3-0.5-5.7c-1.7-1.4-4.3-1.2-5.7,0.5l-12.7,15.4l-20.2,0.5c-2.2,0.1-4,1.9-3.9,4.1
		s1.9,3.9,4,3.9h0.1l22-0.5c1.2,0,2.3-0.6,3-1.5L106.8,90.1z"/>
	<path class="st5" d="M66.7,144.2h1.6c0.4-1.4,0.9-2.9,1.6-4.5l-1.4-0.6C67.7,140.9,67.1,142.6,66.7,144.2z"/>
	<polygon class="st5" points="59.5,144.2 62,144.2 55.4,134.2 53.8,135.4 	"/>
	<path class="st7" d="M77.1,145.3H58.9c-0.6,0-1,0.5-1,1c0,0.6,0.5,1,1,1h0.4l1.1,17.4h15.4l1.1-17.4h0.4c0.6,0,1-0.5,1-1
		C78.1,145.8,77.7,145.3,77.1,145.3z"/>
</g>
<g id="уборка_офисов">
</g>
<g id="ежедневнаЯ_комплекснаЯ">
</g>
<g id="спецуслуги">
</g>
<g id="после_пожара">
</g>
<g id="премиум">
</g>
</svg>
