<?xml version="1.0" encoding="utf-8"?>
<!-- Generator: Adobe Illustrator 22.1.0, SVG Export Plug-In . SVG Version: 6.00 Build 0)  -->
<svg version="1.1" id="Слой_1" xmlns="http://www.w3.org/2000/svg" xmlns:xlink="http://www.w3.org/1999/xlink" x="0px" y="0px"
	 viewBox="0 0 201 201" style="enable-background:new 0 0 201 201;" xml:space="preserve">
<style type="text/css">
	.st0{clip-path:url(#SVGID_4_);}
	.st1{clip-path:url(#SVGID_5_);fill:url(#SVGID_6_);}
	.st2{fill:#6B6966;}
	.st3{fill:#AFAFAF;}
	.st4{fill:none;}
	.st5{fill:#979695;}
	.st6{fill:#6B6966;stroke:#FFFFFF;stroke-width:1.577;stroke-miterlimit:10;}
	.st7{fill:#B3B3B3;}
	.st8{fill:#8975A2;}
	.st9{fill:#ABA2CB;}
	.st10{fill:#FFFFFF;}
	.st11{fill:#A5A4A4;}
</style>
<g id="ЌаправлЯющие_длЯ_монтажной_области">
</g>
<g id="после_ремонта">
</g>
<g id="генеральнаЯ">
</g>
<g id="химчистка">
</g>
<g id="эко_клининг">
</g>
<g id="мытье_окон">
</g>
<g id="уборка_офисов">
	<g>
		<g>
			<defs>
				<polygon id="SVGID_1_" points="1,1 2,1 1,2 				"/>
			</defs>
			<defs>
				<polygon id="SVGID_3_" points="-1,-1 -2,-1 -1,-2 				"/>
			</defs>
			<clipPath id="SVGID_4_">
				<use xlink:href="#SVGID_1_"  style="overflow:visible;"/>
			</clipPath>
			<clipPath id="SVGID_5_" class="st0">
				<use xlink:href="#SVGID_3_"  style="overflow:visible;"/>
			</clipPath>
			
				<linearGradient id="SVGID_6_" gradientUnits="userSpaceOnUse" x1="100.5" y1="1.5" x2="100.5" y2="201.5" gradientTransform="matrix(1 0 0 -1 0 202)">
				<stop  offset="0" style="stop-color:#666666"/>
				<stop  offset="1.018322e-02" style="stop-color:#646464"/>
				<stop  offset="0.2068" style="stop-color:#404040"/>
				<stop  offset="0.4051" style="stop-color:#242424"/>
				<stop  offset="0.6033" style="stop-color:#101010"/>
				<stop  offset="0.8015" style="stop-color:#040404"/>
				<stop  offset="1" style="stop-color:#000000"/>
			</linearGradient>
			<circle class="st1" cx="100.5" cy="100.5" r="100"/>
		</g>
	</g>
	<rect x="93.3" y="116.6" class="st2" width="5.3" height="2.2"/>
	<path class="st2" d="M115.9,108.2H69.3v-3.5h17.4c0.8,0,1.5-0.7,1.5-1.6v-34c0-0.9-0.7-1.6-1.5-1.6H42c-0.8,0-1.5,0.7-1.5,1.6v34.1
		c0,0.9,0.7,1.6,1.5,1.6h17.3v3.5H31v4.6h3.7v45.7h2.7v-45.7h43.5v45.7h2.7v-26.9h25.6v26.9h2.7v-45.7h4
		C115.9,112.9,115.9,108.2,115.9,108.2z M43.5,101.6v-31h41.8v30.9L43.5,101.6L43.5,101.6z M109.2,129H83.6v-16.2h25.6V129z"/>
	<g>
		<path class="st3" d="M49,92L49,92c-0.3-0.1-0.4-0.3-0.3-0.5l6.4-18.6c0.1-0.2,0.3-0.3,0.5-0.2c0.2,0.1,0.3,0.3,0.2,0.5l-6.4,18.6
			C49.3,91.9,49.2,92,49,92z"/>
	</g>
	<g>
		<path class="st3" d="M50.7,96.1L50.7,96.1c-0.3-0.1-0.4-0.3-0.3-0.5L56.8,77c0.1-0.2,0.3-0.3,0.5-0.2c0.2,0.1,0.3,0.3,0.2,0.5
			l-6.4,18.6C51,96,50.9,96.1,50.7,96.1z"/>
	</g>
	<rect x="43.5" y="70.6" class="st4" width="20.9" height="30.9"/>
	<path class="st4" d="M83.6,129h25.6v-16.2H83.6V129z M93.3,116.6h5.3v2.2h-5.3V116.6z"/>
	<rect x="64.4" y="70.6" class="st4" width="20.9" height="30.9"/>
	<rect x="93.3" y="116.6" class="st5" width="5.3" height="2.2"/>
	<g>
		<path class="st6" d="M121.7,85.6c-0.6-0.1-1.2-0.4-1.7-0.8l-16.2-11.7c-2.1-1.5-2.6-4.5-1.1-6.6s4.5-2.6,6.6-1.1l14.3,10.4
			l23.7-6.8c2.5-0.7,5.1,0.7,5.8,3.3c0.7,2.5-0.7,5.1-3.3,5.8l-25.9,7.4C123.3,85.8,122.5,85.8,121.7,85.6z"/>
	</g>
	<path class="st5" d="M105.7,58.3l-1.5-5.6l-4.4,0.7c-0.5,1.3-0.6,2.8,0.3,3.9c0.5,0.6-0.1,0.9,0,1.4c0,0.2,0.1,0.4,0.2,0.5
		C102.1,58.9,103.9,58.6,105.7,58.3L105.7,58.3L105.7,58.3z"/>
	<path class="st7" d="M83.6,49.9L83.6,49.9c-0.3,0-0.4,0.3-0.4,0.5l0,0c0,0.2,0.3,0.4,0.5,0.4l3.2-0.5c0.3,0,0.4-0.3,0.4-0.5l0,0
		c0-0.2-0.3-0.4-0.5-0.4L83.6,49.9L83.6,49.9z M89.4,46.9L89.4,46.9c-0.3,0-0.5,0.1-0.5,0.4l0,0c0,0.2,0.2,0.5,0.4,0.5l3.2,0.5
		c0.3,0,0.5-0.1,0.5-0.4l0,0c0-0.2-0.2-0.5-0.4-0.5L89.4,46.9L89.4,46.9z M83.7,46L83.7,46c-0.3,0-0.5,0.1-0.5,0.4l0,0
		c0,0.2,0.2,0.5,0.4,0.5l3.2,0.5c0.3,0,0.5-0.1,0.5-0.4l0,0c0-0.2-0.2-0.5-0.4-0.5L83.7,46L83.7,46z M89.3,48.9L89.3,48.9
		c-0.3,0-0.4,0.3-0.4,0.5l0,0c0,0.2,0.3,0.4,0.5,0.4l3.2-0.5c0.3,0,0.4-0.3,0.4-0.5l0,0c0-0.2-0.3-0.4-0.5-0.4L89.3,48.9L89.3,48.9z
		 M90.1,51.8L90.1,51.8c-0.2,0.1-0.5,0.1-0.6-0.2l0,0c-0.1-0.2,0-0.5,0.2-0.6l2.8-1.6c0.2-0.1,0.5-0.1,0.6,0.2l0,0
		c0.1,0.2,0,0.5-0.2,0.6L90.1,51.8L90.1,51.8z M85,54.6L85,54.6c-0.2,0.1-0.5,0.1-0.6-0.2l0,0c-0.1-0.2,0-0.5,0.2-0.6l2.8-1.6
		c0.2-0.1,0.5-0.1,0.6,0.2l0,0c0.1,0.2,0,0.5-0.2,0.6L85,54.6L85,54.6z"/>
	<path class="st2" d="M163,142.9c0,0,0.1-0.1,0.1-0.2l-2.7-65.5c-1.2-6.6-3.1-10.4-7.1-11.7c0,0-10.9-1.7-12.9,0.2
		c-3.6,3.3-4.5,10-4.5,10l-1,12l-6.9,63.4l-0.6,5.3c-0.4,3.4,2.2,6.4,5.8,7c0.1,0,0.2,0,0.3,0c3.8,0.5,7.1-2,7.5-5.4l5-44h3.2
		l2.1,44c0.2,3.4,3,6,6.3,6c0.1,0,0.2,0,0.3,0c3.5-0.2,6.2-3.1,6-6.6L163,142.9z"/>
	<path class="st8" d="M97.1,66.5L97.1,66.5c-0.2-2,1.5-4.9,3.3-6.8l5.4-0.9l4.7,18c-0.2,1.1-1.2,2.3-2.3,2.5l-6.8,1.1
		c-1,0.2-2.4-0.6-3-1.6L97.1,66.5L97.1,66.5z M97.9,66.5L97.9,66.5c-0.2-1.3,0.5-3,3.2-6.1c-1.6,3.1-2.5,4.7-2.5,6l-0.1,4.8
		L97.9,66.5L97.9,66.5z"/>
	<g>
		<path class="st9" d="M104.1,52.2c-0.8-3.4,0.2-4,1.6-4.6l-0.3-1.9l-8.8,1.5l0.4,2.4l0.9,0.2l-0.5,1l1.1-0.1l0.8,1.8
			c0.1,0.3,0.3,0.4,0.5,0.4L104.1,52.2L104.1,52.2L104.1,52.2z"/>
		<path class="st9" d="M97.1,66.5L97.1,66.5c-0.2-2,1.5-4.9,3.3-6.8l1.3-0.2l3.4,20.3l-3.7,0.6c-1,0.2-2.4-0.6-3-1.6L97.1,66.5
			L97.1,66.5z M97.9,66.5L97.9,66.5c-0.2-1.3,0.5-3,3.2-6.1c-1.6,3.1-2.5,4.7-2.5,6l-0.1,4.8L97.9,66.5L97.9,66.5z"/>
		<path class="st9" d="M96.3,47.2l0.4,2.6l0.8,0.2l-2.4,5c-0.1,0.3-0.7,0-0.6-0.3c0.2-0.4,0.4-0.8,0.6-1.2c-0.1-0.4-0.3-0.7-0.1-1.1
			c0.1-0.3,0.6-0.3,0.7-0.6c0.2-0.4,0-0.9,0.1-1.3c0.1-0.2,0.2-0.5,0.4-0.6v-0.1l-2.4-0.1l-0.3-1.8l2.3-0.5L96.3,47.2L96.3,47.2
			L96.3,47.2z"/>
		<polygon class="st9" points="102.4,84 97.4,89.1 107.6,106.9 116.5,97.7 		"/>
	</g>
	<path class="st2" d="M130,99.5c-0.6,0.2-1.3,0.3-2,0.3l-20.8-1.4c-2.7-0.2-4.8-2.5-4.6-5.3c0.2-2.7,2.5-4.8,5.3-4.6l18.4,1.3
		l17.3-19.1c1.8-2,5-2.2,7-0.3c2,1.8,2.2,5,0.3,7L132,98.2C131.4,98.8,130.7,99.3,130,99.5z"/>
	<path class="st10" d="M128.3,100.2c-0.1,0-0.2,0-0.4,0l-20.8-1.4c-1.4-0.1-2.7-0.7-3.7-1.8c-0.9-1.1-1.4-2.5-1.3-3.9
		s0.7-2.7,1.8-3.7c1.1-0.9,2.5-1.4,3.9-1.3l18.2,1.3l17.2-19c1-1.1,2.3-1.7,3.7-1.7c1.4-0.1,2.8,0.4,3.8,1.4c1.1,1,1.7,2.3,1.7,3.7
		c0.1,1.4-0.4,2.8-1.4,3.8l-18.9,20.9c-0.6,0.7-1.3,1.2-2.2,1.5l0,0C129.5,100.1,128.9,100.2,128.3,100.2z M107.5,88.9
		c-1.1,0-2.1,0.4-3,1.1c-0.9,0.8-1.5,1.9-1.5,3.1c-0.1,1.2,0.3,2.4,1.1,3.3c0.8,0.9,1.9,1.5,3.1,1.5l20.8,1.4c0.6,0,1.2,0,1.8-0.2
		l0,0c0.7-0.3,1.4-0.7,1.9-1.2L150.6,77c0.8-0.9,1.2-2.1,1.2-3.3c-0.1-1.2-0.6-2.3-1.5-3.1c-0.9-0.8-2.1-1.2-3.3-1.2
		c-1.2,0.1-2.3,0.6-3.1,1.5l-17.4,19.2l-18.6-1.3C107.8,88.9,107.7,88.9,107.5,88.9z"/>
	<path class="st2" d="M144.6,62.3c-7.2-1.8-11.9-8.6-11.1-15.8c1.3,0.2,2.7,0.4,4.1,0.6c7.6,0.6,13.9-0.8,14.3-3.3
		c-1.5,2-7.6,2.3-14.4,0.6c-5.2-1.3-9.4-3.3-11.4-5.3c-0.9-0.9-1.3-1.8-1.1-2.6c0.6-2.5,7.2-3.1,14.7-1.2c0.3,0.1,0.5,0.1,0.8,0.2
		c3.2-1.9,7.1-2.6,11-1.7c7.9,1.9,12.7,9.9,10.8,17.7C160.4,59.4,152.5,64.3,144.6,62.3z"/>
	<path class="st5" d="M64.4,70.6v-3.2H42c-0.8,0-1.5,0.7-1.5,1.6v34.1c0,0.9,0.7,1.6,1.5,1.6h17.3v3.5H31v4.6h3.7v45.7h1h1.7h1.5
		v-45.7h25.5v-11.2H43.5v-31H64.4z"/>
	<path class="st11" d="M115.9,108.2H69.3v-3.5h17.4c0.8,0,1.5-0.7,1.5-1.6v-34c0-0.9-0.7-1.6-1.5-1.6H64.4v3.2h20.9v30.9H64.4v11.2
		h15.2v45.7h1.3h1.8h0.9v-26.9h25.6v26.9h0.9h1.8h1.2v-45.7h2.7L115.9,108.2L115.9,108.2z M109.2,129H83.6v-16.2h25.6V129z"/>
	<polygon class="st8" points="88.7,98.1 102.8,111.8 107.6,106.9 97.4,89.1 	"/>
</g>
<g id="ежедневнаЯ_комплекснаЯ">
</g>
<g id="спецуслуги">
</g>
<g id="после_пожара">
</g>
<g id="премиум">
</g>
</svg>
