<?xml version="1.0" encoding="utf-8"?>
<!-- Generator: Adobe Illustrator 22.1.0, SVG Export Plug-In . SVG Version: 6.00 Build 0)  -->
<svg version="1.1" id="Слой_1" xmlns="http://www.w3.org/2000/svg" xmlns:xlink="http://www.w3.org/1999/xlink" x="0px" y="0px"
	 viewBox="0 0 201 201" style="enable-background:new 0 0 201 201;" xml:space="preserve">
<style type="text/css">
	.st0{clip-path:url(#SVGID_4_);}
	.st1{clip-path:url(#SVGID_5_);fill:url(#SVGID_6_);}
	.st2{fill:#AFAFAF;}
	.st3{fill:#6B6966;}
	.st4{fill:#AAA1CA;}
	.st5{fill:#979695;}
	.st6{fill:#838384;}
	.st7{fill:#8975A2;}
	.st8{fill:none;}
	.st9{fill:#A5A4A4;}
</style>
<g id="ЌаправлЯющие_длЯ_монтажной_области">
</g>
<g id="после_ремонта">
</g>
<g id="генеральнаЯ">
</g>
<g id="химчистка">
	<g>
		<g>
			<defs>
				<polygon id="SVGID_1_" points="1,1 2,1 1,2 				"/>
			</defs>
			<defs>
				<polygon id="SVGID_3_" points="-1,-1 -2,-1 -1,-2 				"/>
			</defs>
			<clipPath id="SVGID_4_">
				<use xlink:href="#SVGID_1_"  style="overflow:visible;"/>
			</clipPath>
			<clipPath id="SVGID_5_" class="st0">
				<use xlink:href="#SVGID_3_"  style="overflow:visible;"/>
			</clipPath>
			
				<linearGradient id="SVGID_6_" gradientUnits="userSpaceOnUse" x1="100.5" y1="1.5" x2="100.5" y2="201.5" gradientTransform="matrix(1 0 0 -1 0 202)">
				<stop  offset="0" style="stop-color:#666666"/>
				<stop  offset="1.018322e-02" style="stop-color:#646464"/>
				<stop  offset="0.2068" style="stop-color:#404040"/>
				<stop  offset="0.4051" style="stop-color:#242424"/>
				<stop  offset="0.6033" style="stop-color:#101010"/>
				<stop  offset="0.8015" style="stop-color:#040404"/>
				<stop  offset="1" style="stop-color:#000000"/>
			</linearGradient>
			<circle class="st1" cx="100.5" cy="100.5" r="100"/>
		</g>
	</g>
	<path class="st2" d="M81.4,120.9c-0.9,4.1-5.1,7.1-9,9v5.8c8.2-3.5,13-8.2,14.2-13.7c1.1-5.1,3.8-8.7,7.4-11.4l-4.2-3.4
		C85.4,110.7,82.5,115.3,81.4,120.9z"/>
	<path class="st2" d="M22.4,138c0.3,2.9,3.7,3.8,7.6,4.1v-9.9C25,133.7,22.2,135.3,22.4,138z"/>
	<path class="st2" d="M106.7,99.6c-0.1,0.4-0.2,0.7-0.3,1.1l4.4,3.5c2.8-0.4,5.3-0.6,7.3-0.7L108,99.4
		C107.6,99.4,107.2,99.5,106.7,99.6z"/>
	<path class="st3" d="M89.8,146.4c-2,3-1.2,7.1,1.8,9.1c1.1,0.7,2.4,1.1,3.6,1.1c2.1,0,4.2-1,5.5-2.9c7.3-11,9.7-21.1,10-29.5
		l-14.8-12C98.4,119.9,99.3,132,89.8,146.4z"/>
	<path class="st3" d="M87.2,96c-0.3,2.5-0.1,4.6,0.5,6.2c0.3,1.4,1.1,2.6,2.2,3.6l23.7,19.3l8.6,27.2c0.9,2.8,3.5,4.6,6.3,4.6
		c0.7,0,1.3-0.1,2-0.3c3.5-1.1,5.4-4.8,4.3-8.2l-9.2-29c-0.4-1.2-1.1-2.3-2.1-3.1l-18.4-15c0.3-1,0.6-2,0.9-3c-1-1-1.6-2.3-1.7-3.7
		l-0.8-21.1c-0.1-3,2.2-5.5,5.2-5.6c0.1,0,0.1,0,0.2,0c2.9,0,5.3,2.3,5.4,5.2l0.3,7.8c0.4-0.7,0.8-1.4,1.2-2
		c3.1-4.5,3.2-11-0.7-13.5c-0.4-0.3-0.9-0.5-1.4-0.7c-0.1,0-0.1-0.1-0.2-0.1c-0.3-0.1-2.7-1.1-6.1-1.6c-5.6-0.9-13.9-0.6-19.4,7
		c-1.2,1.6-1,3.9,0.4,5.4l3.4,3.6l0.9,0.9C90.2,84.3,88.6,89.2,87.2,96z"/>
	<path class="st3" d="M134.4,104.5c0.9-2.1-0.1-4.6-2.3-5.5l-18.4-7.6L113,73c-0.1-2.3-2-4.1-4.3-4s-4.1,2-4,4.3l0.8,21.1
		c0.1,1.6,1.1,3.1,2.6,3.7l20.9,8.7c0.5,0.2,1.1,0.3,1.6,0.3C132.2,107.1,133.8,106.1,134.4,104.5z"/>
	<path class="st3" d="M142.5,57.5c1-1.8-2.7-5.7-8.3-8.5c-0.2-0.1-0.4-0.2-0.6-0.3c-0.9-2.9-2.9-5.4-5.8-6.9c-5.8-3-12.9-0.8-15.9,5
		s-0.8,12.9,5,15.9c5.3,2.8,11.7,1.1,15.1-3.7c-0.9-0.5-1.9-1.2-2.8-1.9c-4.9-3.6-8-7.9-6.9-9.6c-0.1,2,3.4,5.4,8.4,8
		c3.8,2,7.5,3,9.7,2.8C141.5,58.4,142.2,58.1,142.5,57.5z"/>
	<path class="st4" d="M67.8,78.3c0-4.4-3.6-8.1-8.1-8.1h-17c-4.4,0-8.1,3.6-8.1,8.1v6h33.1L67.8,78.3L67.8,78.3z"/>
	<path class="st5" d="M67.3,142.5c1.3,0,2.6,0.3,3.7,0.9V85.7H31.4v57.7c1.1-0.6,2.4-0.9,3.7-0.9c4.3,0,7.8,3.2,8.3,7.4H59
		C59.5,145.8,63,142.5,67.3,142.5z M46.3,90.5h21.3v4.9H46.3V90.5z"/>
	<rect x="53.3" y="92" class="st4" width="12.6" height="2"/>
	<path class="st6" d="M28.2,150.9c0,3.8,3.1,7,7,7s7-3.1,7-7s-3.1-7-7-7S28.2,147.1,28.2,150.9z M35.1,147c2.2,0,3.9,1.8,3.9,3.9
		c0,2.2-1.8,3.9-3.9,3.9c-2.2,0-3.9-1.8-3.9-3.9C31.2,148.7,32.9,147,35.1,147z"/>
	<path class="st6" d="M67.3,143.9c-3.8,0-7,3.1-7,7s3.1,7,7,7s7-3.1,7-7S71.1,143.9,67.3,143.9z M67.3,154.8c-2.2,0-3.9-1.8-3.9-3.9
		c0-2.2,1.8-3.9,3.9-3.9s3.9,1.8,3.9,3.9C71.2,153.1,69.5,154.8,67.3,154.8z"/>
	<rect x="150" y="156" class="st7" width="25.9" height="2.5"/>
	<rect x="51.2" y="90.5" class="st8" width="16.3" height="4.9"/>
	<rect x="46.3" y="90.5" class="st8" width="4.9" height="4.9"/>
	<path class="st9" d="M46.3,95.5v-4.9h4.9v-4.8H31.4v57.7c1.1-0.6,2.4-0.9,3.7-0.9c4.3,0,7.8,3.2,8.3,7.4h7.8V95.5H46.3z"/>
	<path class="st2" d="M175.4,151.5h-9.5L135.3,106l-2.8,1.9l29.3,43.5h-1.1h-10.1c-0.9,0-1.7,0.8-1.7,1.7s0.8,1.7,1.7,1.7h24.8
		c0.9,0,1.7-0.8,1.7-1.7S176.3,151.5,175.4,151.5z"/>
</g>
<g id="эко_клининг">
</g>
<g id="мытье_окон">
</g>
<g id="уборка_офисов">
</g>
<g id="ежедневнаЯ_комплекснаЯ">
</g>
<g id="спецуслуги">
</g>
<g id="после_пожара">
</g>
<g id="премиум">
</g>
</svg>
