<?xml version="1.0" encoding="utf-8"?>
<!-- Generator: Adobe Illustrator 22.1.0, SVG Export Plug-In . SVG Version: 6.00 Build 0)  -->
<svg version="1.1" id="Слой_1" xmlns="http://www.w3.org/2000/svg" xmlns:xlink="http://www.w3.org/1999/xlink" x="0px" y="0px"
	 viewBox="0 0 201 201" style="enable-background:new 0 0 201 201;" xml:space="preserve">
<style type="text/css">
	.st0{clip-path:url(#SVGID_4_);}
	.st1{clip-path:url(#SVGID_5_);fill:url(#SVGID_6_);}
	.st2{fill:#B3B3B3;}
	.st3{fill:#ABA2CB;}
	.st4{fill:#8975A2;}
	.st5{fill:#979695;}
	.st6{fill:#666666;}
	.st7{fill:#6B6966;}
	.st8{fill:#FFFFFF;}
	.st9{fill:#7F7E7C;}
	.st10{fill:#C9C8C8;}
</style>
<g id="ЌаправлЯющие_длЯ_монтажной_области">
</g>
<g id="после_ремонта">
</g>
<g id="генеральнаЯ">
</g>
<g id="химчистка">
</g>
<g id="эко_клининг">
</g>
<g id="мытье_окон">
</g>
<g id="уборка_офисов">
</g>
<g id="ежедневнаЯ_комплекснаЯ">
	<g>
		<g>
			<defs>
				<polygon id="SVGID_1_" points="1,1 2,1 1,2 				"/>
			</defs>
			<defs>
				<polygon id="SVGID_3_" points="-1,-1 -2,-1 -1,-2 				"/>
			</defs>
			<clipPath id="SVGID_4_">
				<use xlink:href="#SVGID_1_"  style="overflow:visible;"/>
			</clipPath>
			<clipPath id="SVGID_5_" class="st0">
				<use xlink:href="#SVGID_3_"  style="overflow:visible;"/>
			</clipPath>
			
				<linearGradient id="SVGID_6_" gradientUnits="userSpaceOnUse" x1="100.5" y1="1.5" x2="100.5" y2="201.5" gradientTransform="matrix(1 0 0 -1 0 202)">
				<stop  offset="0" style="stop-color:#666666"/>
				<stop  offset="1.018322e-02" style="stop-color:#646464"/>
				<stop  offset="0.2068" style="stop-color:#404040"/>
				<stop  offset="0.4051" style="stop-color:#242424"/>
				<stop  offset="0.6033" style="stop-color:#101010"/>
				<stop  offset="0.8015" style="stop-color:#040404"/>
				<stop  offset="1" style="stop-color:#000000"/>
			</linearGradient>
			<circle class="st1" cx="100.5" cy="100.5" r="100"/>
		</g>
	</g>
	<path class="st2" d="M122.7,97.3h-4.6v5c0.7-0.1,1.5-0.1,2.3-0.1s1.6,0,2.3,0.1L122.7,97.3L122.7,97.3z"/>
	<path class="st3" d="M109.3,137c0.1,4.2,0.5,8.1,1,11.7c5.5,1.9,14.7,1.9,20.2,0c0.5-3.6,0.8-7.6,1-11.7c-2.1-1.8-6.2-3-11.1-3
		S111.4,135.2,109.3,137L109.3,137L109.3,137z M110.9,113.1c-1.1,5.8-1.7,12.6-1.7,19.8c0,1,0,2.1,0,3.1c2-1.8,6.2-3,11.1-3
		c4.8,0,9,1.2,11.1,3c0-1,0-2,0-3.1c0-7.3-0.6-14.1-1.7-19.8c-2.7-1.9-6-2.9-9.4-2.9C117,110.2,113.7,111.2,110.9,113.1L110.9,113.1
		L110.9,113.1z"/>
	<path class="st4" d="M120.4,150.2c3.7,0,7.3-0.5,10.1-1.5c0.5-3.6,0.8-7.6,1-11.7c-2.1-1.8-6.2-3-11.1-3l0,0V150.2L120.4,150.2z
		 M120.4,133.1v-22.9l0,0c3.4,0,6.7,1,9.4,2.9c1.1,5.8,1.7,12.6,1.7,19.8c0,1,0,2.1,0,3.1C129.4,134.3,125.2,133.1,120.4,133.1
		L120.4,133.1L120.4,133.1z"/>
	<path class="st2" d="M123.3,94.3v2.6h-5.9V96l1.2-0.1c1.2-0.1,2.3-0.7,3.1-1.6H123.3L123.3,94.3L123.3,94.3z"/>
	<path class="st5" d="M105.6,137.4c0,0.4,0,0.7,0,1.1c0,4.4-0.4,9.1-1.4,13.3l-0.1,0.4c0.4,0.4,0.9,0.7,1.3,0.9
		c1.2,0.5,3.1,1,5.3,1.3c-0.2-1.1-0.4-2.2-0.6-3.3c-1.7-0.9-2.7-2.2-2.7-3.8c0.6,0.5,1.4,0.9,2.3,1.2c-0.5-3.7-0.8-7.4-0.9-11.1
		L105.6,137.4L105.6,137.4L105.6,137.4z"/>
	<path class="st5" d="M105.4,120c-0.4,2-0.7,3.8-1.1,5.9l0.1-0.1l0.2,1.3c0.6,3,0.9,6.1,0.9,9.2h3.2c0-1.1,0-2.3,0-3.4
		c0-6.4,0.5-13,1.6-19.3c-1.6,1.2-2.9,2.8-3.9,4.7L105.4,120L105.4,120L105.4,120z"/>
	<path class="st5" d="M103.6,151.6c0.9-3.5,1.4-8.1,1.4-13.2c0-4.1-0.4-8-1-11.1c-0.8,0.9-2.2,2-2.4,3.8c-0.6,5.8-1.1,10.6-0.2,16.1
		C101.7,148.9,102.6,150.5,103.6,151.6L103.6,151.6L103.6,151.6z"/>
	<polygon class="st5" points="136.1,82.4 148.5,138.4 151.1,138.1 138.7,81.8 136.1,82.4 	"/>
	<polygon class="st5" points="151.6,136.6 152.5,140.7 148.1,141.2 147.2,137.1 151.6,136.6 	"/>
	<polygon class="st5" points="168.5,149.1 168.5,150.8 148.5,153.3 148.5,151.6 168.5,149.1 	"/>
	<polygon class="st5" points="148.2,153.2 141.4,149.1 141.4,147.4 148.2,151.6 	"/>
	<polygon class="st5" points="141.6,147.1 147.3,146.4 152.4,149.7 152.5,149.7 162.2,148.7 158.8,145 162.1,144.7 168.3,149 
		148.4,151.2 	"/>
	<polygon class="st5" points="160.9,148.3 153.7,140.4 146.1,141.3 147.3,145.8 152.8,149.2 152.8,149.2 152.8,149.2 160.9,148.3 	
		"/>
	<polygon class="st2" points="138.4,79.1 138.9,81.4 135.7,82.1 135.1,79.8 138.4,79.1 	"/>
	<path class="st2" d="M92.4,98.1c-2,4.3-3.5,8.9-4.5,13.4c-1.6,7.3-1.8,15.8,2.9,22.2c4.2,5.7,8,0.4,9.6-4.3c1.4-3.9,2.3-8.3,3-12.4
		c0.6-3.3,1.4-12.7,3.7-20.2l-3.5,0.3c-2,7.3-2.8,15.4-3.5,19.3s-1.5,8-2.8,11.8c-1.6,4.6-3,4.5-4.4,2.3c-3.3-5.4-3-12.3-1.7-18.3
		c1.1-4.9,2.9-9.9,5.1-14.5L92.4,98.1L92.4,98.1L92.4,98.1z"/>
	<path class="st6" d="M124.5,86.4l-0.4-4.5c-0.1-1.6-1.5-2.8-3.1-2.7l-9.4,0.8c-1.2,1-2.3,2.1-3.4,3.2l10.1-0.9
		c1.6-0.1,3,1.2,3.1,2.9l0.3,4.1c0.6-0.1,1.1-0.2,1.7-0.4C124.3,88.6,124.6,87.4,124.5,86.4z"/>
	<rect x="121.8" y="90.2" class="st2" width="1.1" height="3.6"/>
	<path class="st7" d="M47.5,110.5l7.8,47.1c0.8,2,2.8,3.1,4.6,3.5s4.5-0.1,5.9-1.2c1.7-1.3,3.1-3.5,2.7-6.1l-7.9-47.7L75.4,87
		l9.3,9.1c0.6,0.7,1.7,1.3,2.6,1.2l30.5-2.8c1.6-0.1,2.8-1.7,2.7-3.4l-0.4-4.9c-0.1-1.7-1.5-3-3.1-2.9l-27.3,2.5l-7.9-7.7l0.9-1.5
		l7.5,7.3l8-0.7c0.8-1.2,1.6-2.3,2.5-3.4L93,80.7L82.5,70.4c-0.2-0.3-0.5-0.6-0.8-0.9l-2.1-2l-9.5-8.3c-2.6-0.9-6,1.1-7.7,3.2
		L34.1,96.9c-1.2,1.5-1.6,4-1.6,6.2V157c0.4,2.1,2.1,4.2,3.7,4.9c1.6,0.7,4.5,0.7,6,0c2-0.9,3.9-3.4,3.9-6.1V110L47.5,110.5
		L47.5,110.5L47.5,110.5z"/>
	<path class="st2" d="M138.2,78.8c-1-3.9-3.1-7.5-7-9.3c-4.4-2.1-9.5-1.1-13.8,0.8c-5.4,2.4-10.3,6.4-14.2,10.8
		c-0.8,0.9-1.5,1.8-2.2,2.7l4.7-0.4l0,0c3.6-4,8.1-7.8,13.1-9.9c3.3-1.5,7.6-2.5,11-0.9c2.8,1.3,4.3,4.1,5.1,6.9L138.2,78.8
		L138.2,78.8L138.2,78.8z"/>
	<path class="st8" d="M120.8,142.7v1.1c2.1,0,4.5-0.4,6.4-1.3c1.1-0.5,2.6-1.5,2.6-2.8c0-1.4-1.5-2.3-2.6-2.8
		c-1.9-0.9-4.3-1.2-6.4-1.3v0.3c1.7,0.2,2.9,1.7,2.9,3.4C123.8,141,122.5,142.5,120.8,142.7L120.8,142.7z"/>
	<path class="st9" d="M130.1,154.3c2.2-0.3,4-0.7,5.3-1.3c0.4-0.2,0.8-0.4,1.2-0.8l-0.1-0.3c-1.1-4.3-1.5-9.1-1.5-13.5
		c0-0.4,0-0.7,0-1.1h-3c-0.1,3.7-0.4,7.4-0.9,11.1c0.9-0.4,1.7-0.8,2.3-1.2c-0.2,1.5-1.2,2.6-2.6,3.5
		C130.6,152,130.4,153.1,130.1,154.3L130.1,154.3L130.1,154.3z"/>
	<path class="st9" d="M132.1,136.4h3c0.1-3.2,0.4-6.5,1-9.6l0.3-1.5c-0.4-1.9-0.7-3.5-1-5.3l-0.9-1.7c-1-1.8-2.3-3.4-3.9-4.7
		c1.1,6.3,1.6,12.9,1.6,19.3C132.1,134.1,132.1,135.3,132.1,136.4L132.1,136.4L132.1,136.4z"/>
	<path class="st5" d="M136.7,126.9c-0.7,3.3-1,7.2-1,11.5c0,5.1,0.6,9.8,1.4,13.4c1.1-1.1,2-2.8,2.3-4.7c0.9-5.4,0.4-10.3-0.2-16.1
		c-0.2-1.8-1.7-2.9-2.5-3.8V126.9L136.7,126.9L136.7,126.9z"/>
	<path class="st10" d="M105.8,118c2.7-5,8.2-8.4,14.6-8.4s11.9,3.4,14.6,8.4c-0.1-0.5-0.2-1-0.3-1.6c-2.1-7.5-4.9-13.9-14.3-13.9
		c-9.3,0-12.1,6.4-14.3,13.9C106,117,105.9,117.5,105.8,118L105.8,118L105.8,118z M128.2,107.1L128.2,107.1c0.7,0.5-0.3,1.6-1.4,1.6
		c-4.3,0-8.5,0-12.8,0c-1.1,0-2.1-1.1-1.4-1.6C116.9,103.7,123.9,103.7,128.2,107.1L128.2,107.1L128.2,107.1z"/>
	<path class="st3" d="M110.7,151.4c0.2,1,0.4,2,0.6,3c5.4,0.7,12.8,0.7,18.2,0c0.2-1,0.4-2.1,0.6-3.2
		C125.1,153.8,115.7,153.8,110.7,151.4L110.7,151.4L110.7,151.4z"/>
	<path class="st8" d="M119.9,142.7v1.1c-2.1,0-4.5-0.4-6.4-1.3c-1.1-0.5-2.6-1.5-2.6-2.8c0-1.4,1.5-2.3,2.6-2.8
		c1.9-0.9,4.3-1.2,6.4-1.3v0.3c-1.7,0.2-2.9,1.7-2.9,3.4C117,141,118.3,142.5,119.9,142.7L119.9,142.7z"/>
	<path class="st5" d="M120.4,109.6L120.4,109.6c6.4,0,11.9,3.4,14.6,8.4c-0.1-0.5-0.2-1-0.3-1.6c-2.1-7.5-4.9-13.9-14.3-13.9v2
		c2.8,0,5.6,0.9,7.8,2.6l0,0l0,0c0.7,0.5-0.3,1.6-1.4,1.6c-2.1,0-4.3,0-6.4,0L120.4,109.6L120.4,109.6z"/>
	<path class="st4" d="M120.4,153.1v1.8c3.2,0,6.4-0.2,9.1-0.5c0.2-1,0.4-2.1,0.6-3.2C127.6,152.5,124,153.1,120.4,153.1L120.4,153.1
		z"/>
	<path class="st7" d="M78.5,59.6c7,1.4,13.7-2.7,15.9-9.2c-1.2-0.3-2.5-0.7-3.8-1.2c-6.8-2.5-11.7-6.3-11.1-8.6
		c0.5,2.3,5.6,5,12.2,6.3c5,1,9.5,0.9,12,0c1.1-0.4,1.9-1,2-1.8c0.5-2.4-5-5.5-12.3-7c-0.2,0-0.5-0.1-0.7-0.1
		c-2-2.9-5.1-5.1-8.9-5.9c-7.6-1.5-14.9,3.4-16.4,11C66,50.7,70.9,58.1,78.5,59.6z"/>
</g>
<g id="спецуслуги">
</g>
<g id="после_пожара">
</g>
<g id="премиум">
</g>
</svg>
