<?xml version="1.0" encoding="utf-8"?>
<!-- Generator: Adobe Illustrator 22.1.0, SVG Export Plug-In . SVG Version: 6.00 Build 0)  -->
<svg version="1.1" id="Слой_1" xmlns="http://www.w3.org/2000/svg" xmlns:xlink="http://www.w3.org/1999/xlink" x="0px" y="0px"
	 viewBox="0 0 201 201" style="enable-background:new 0 0 201 201;" xml:space="preserve">
<style type="text/css">
	.st0{clip-path:url(#SVGID_4_);}
	.st1{clip-path:url(#SVGID_5_);fill:url(#SVGID_6_);}
	.st2{fill:#AFAFAF;}
	.st3{fill:#FFFFFF;}
	.st4{fill:#0095DA;}
	.st5{fill:#8975A2;}
	.st6{fill:#AAA1CA;}
	.st7{fill:#6B6966;}
	.st8{fill:#666666;}
	.st9{fill:#B3B3B3;}
	.st10{fill:#8D8D8D;}
</style>
<g id="ЌаправлЯющие_длЯ_монтажной_области">
</g>
<g id="после_ремонта">
</g>
<g id="генеральнаЯ">
</g>
<g id="химчистка">
</g>
<g id="эко_клининг">
	<g>
		<g>
			<defs>
				<polygon id="SVGID_1_" points="1,1 2,1 1,2 				"/>
			</defs>
			<defs>
				<polygon id="SVGID_3_" points="-1,-1 -2,-1 -1,-2 				"/>
			</defs>
			<clipPath id="SVGID_4_">
				<use xlink:href="#SVGID_1_"  style="overflow:visible;"/>
			</clipPath>
			<clipPath id="SVGID_5_" class="st0">
				<use xlink:href="#SVGID_3_"  style="overflow:visible;"/>
			</clipPath>
			
				<linearGradient id="SVGID_6_" gradientUnits="userSpaceOnUse" x1="100.5" y1="1.5" x2="100.5" y2="201.5" gradientTransform="matrix(1 0 0 -1 0 202)">
				<stop  offset="0" style="stop-color:#666666"/>
				<stop  offset="1.018322e-02" style="stop-color:#646464"/>
				<stop  offset="0.2068" style="stop-color:#404040"/>
				<stop  offset="0.4051" style="stop-color:#242424"/>
				<stop  offset="0.6033" style="stop-color:#101010"/>
				<stop  offset="0.8015" style="stop-color:#040404"/>
				<stop  offset="1" style="stop-color:#000000"/>
			</linearGradient>
			<circle class="st1" cx="100.5" cy="100.5" r="100"/>
		</g>
	</g>
	<g>
		<path class="st2" d="M65.5,114.8L65.5,114.8c0.2-0.3,0.4-0.7,0.4-1.2v-5.4c0-1-0.8-1.7-1.7-1.7h-9.6c-1,0-1.7,0.8-1.7,1.7v5.4
			c0,0.1,0,0.2,0,0.3h3.9c0.6,0,1.1,0.5,1.1,1.1s-0.5,1.1-1.1,1.1h-3.9c-2,2.7-6.1,9.5-6.1,19.8c0,13.4,0,24.7,0,26.4s0.5,3,3,3
			c2.4,0,25.3,0,27.8,0c2.4,0,3-1.2,3-3c0-1.7,0-13,0-26.4C80.5,120.3,65.5,114.8,65.5,114.8z"/>
		<path class="st3" d="M74.1,161.7c-0.1,0-0.1,0-0.2,0c-0.8-0.1-1.3-0.8-1.4-1.6c0-1.9-0.9-5.4-1.9-6.9c-3.1-0.3-9.9-1.5-13.7-6.1
			c-8.2-9.8-4.7-20.4-4.7-20.4s3.2,2.4,8.8,4.1c11.3,3.3,12.9,11,12.9,15.3c0,0.8-1,1.2-1.4,0.6c-2-2.5-5.3-6-9.3-8.2
			c-0.5-0.3-1-0.2-1.3,0.2s-0.2,1,0.2,1.3c11.8,8.5,13.3,15.3,13.6,20.2C75.7,161,74.9,161.7,74.1,161.7z"/>
		<g>
			<polygon class="st2" points="45.2,118.8 44.5,121.9 43.8,118.8 40.6,118 43.8,117.3 44.5,114.2 45.2,117.3 48.4,118 			"/>
			<polygon class="st2" points="73.6,103.7 72.5,108.2 71.4,103.7 67,102.6 71.4,101.6 72.5,97.1 73.6,101.6 78,102.6 			"/>
		</g>
		<path class="st4" d="M143.6,105.9h0.1v-0.2C143.7,105.8,143.6,105.9,143.6,105.9L143.6,105.9L143.6,105.9z"/>
		<path class="st5" d="M154.4,81.6c2.9,0.2,5.9,2.7,5,5.4c-1.7,5.4-1.4,10.9,0,16.3c0.7,2.7-2.2,5.1-5,5.4c1.9-1.3,3.1-3.4,2.5-5.7
			c-1.3-5.2-1.6-10.4,0-15.5C157.5,85,156.3,82.9,154.4,81.6L154.4,81.6z"/>
		<path class="st6" d="M145.3,81.2c1.7,0,3.3,0,5,0c3,0,6.4,2.6,5.5,5.5c-1.7,5.6-1.4,11.1,0,16.7c0.7,2.9-2.5,5.5-5.5,5.5
			c-1.7,0-3.3,0-5,0c-2.9,0-6.1-4.7-5.6-7.5l0.9-11.7c-0.2-1-0.4-2-0.7-3C138.9,83.8,142.3,81.2,145.3,81.2L145.3,81.2z M151.4,84.1
			c0.7,0,1.3,0.6,1.3,1.3c0,0.7-0.6,1.3-1.3,1.3s-1.3-0.6-1.3-1.3C150.1,84.7,150.7,84.1,151.4,84.1L151.4,84.1z M151.6,103.3
			c0.7,0,1.3,0.6,1.3,1.3s-0.6,1.3-1.3,1.3s-1.3-0.6-1.3-1.3S150.9,103.3,151.6,103.3L151.6,103.3z M142.9,104.5
			c0.5,0,0.9,0.4,0.9,0.9s-0.4,0.9-0.9,0.9s-0.9-0.4-0.9-0.9C142.1,104.9,142.4,104.5,142.9,104.5L142.9,104.5z M142.7,83.7
			c0.5,0,0.9,0.4,0.9,0.9s-0.4,0.9-0.9,0.9s-0.9-0.4-0.9-0.9S142.2,83.7,142.7,83.7L142.7,83.7z M152,93.9c0.5,0,0.9,0.4,0.9,0.9
			s-0.4,0.9-0.9,0.9s-0.9-0.4-0.9-0.9S151.5,93.9,152,93.9L152,93.9z"/>
		<path class="st7" d="M146.5,92.1c-0.8-0.7-1.9-1.1-3-1l-18.8,1.3L107.1,73c-0.8-0.8-1.8-1.3-2.9-1.4s-2.2,0.3-3,1.1
			c-1.7,1.5-1.8,4.2-0.3,5.9l18.9,20.9c0.5,0.5,1.1,0.9,1.7,1.1c0.5,0.2,1.1,0.3,1.7,0.2l20.8-1.4c1.1-0.1,2.1-0.6,2.9-1.4
			c0.7-0.8,1.1-1.9,1-3C147.8,93.9,147.3,92.9,146.5,92.1z"/>
		<path class="st7" d="M123.4,153.1l-5.9-53.9L99.7,79.6c-2.1-2.3-1.9-6,0.4-8.1c1.1-1,2.6-1.5,4.1-1.5c1.5,0.1,2.9,0.7,4,1.9
			l12.2,13.5l6.8,1.9c0.8,0.2,1.6,0.2,2.3,0.1c0.6-0.1,1.2-0.4,1.7-0.8l16.2-11.7c2.1-1.5,2.6-4.5,1.1-6.6s-4.5-2.6-6.6-1.1
			l-14.3,10.4l-13-3.7c-0.7-2.1-1.8-4.7-3.6-6.4c-2-1.9-12.9-0.2-12.9-0.2C94,68.6,92.2,72.4,91,79l-2.7,65.6c0,0.1,0,0.1,0.1,0.2
			l-0.7,14.5c-0.2,3.5,2.5,6.4,6,6.6c0.1,0,0.2,0,0.3,0c3.4,0,6.1-2.6,6.3-6l3.4-44h1.1l5.8,44.1c0.4,3.5,3.8,5.9,7.5,5.5
			c0.1,0,0.2,0,0.3,0c3.6-0.6,6.2-3.7,5.8-7.1L123.4,153.1z"/>
		<path class="st8" d="M144.2,50.1h5.1c0.3,0,0.6,0.3,0.6,0.6v2.5c0,0.3-0.3,0.6-0.6,0.6h-5.1c-0.3,0-0.6-0.3-0.6-0.6v-2.5
			C143.6,50.4,143.9,50.1,144.2,50.1L144.2,50.1z M154.3,40.1l3-0.3l0.5,1.5l-2.2,1.7L154.3,40.1L154.3,40.1z M144.2,47.7l-2.6-1.1
			c0.7-0.8,1.5-1.5,2.5-2.1C145.3,44,144.9,48.3,144.2,47.7L144.2,47.7z M154,43.8c0.2,0,0.4,0.2,0.4,0.4s-0.2,0.4-0.4,0.4
			s-0.4-0.2-0.4-0.4S153.8,43.8,154,43.8L154,43.8z M145,44.3c2.4-1.5,5.6-2.8,8.8-3.3C149.9,42.2,148.8,42.6,145,44.3L145,44.3z
			 M153,48.9l-2.4-1c-0.5,0.2-0.9,0.4-1.4,0.5v1.2h-5.1v-1.3c-1.4-0.6-1.9-0.8-3.1-1.4h-2.4c-0.5,0-0.4-0.7,0-0.7h2.5
			c3.7-3.6,8.2-4.7,12.8-5.9l1.4,3.1l-0.1,0.6l-0.3,0.9l-1.7,1.2L153,48.9L153,48.9z M160.3,54.4c0.3,0.5-0.3,0.5-0.7,0.4
			c-2.3-1-4.3-2.4-5.4-5.3c-0.3,0.2-0.8,0-0.8-0.5l0,0l0.1-2.7l1.7-1.2l0.3-0.9c0.6,0.4,0.6,1.5-0.1,2.1
			C157,49,158.6,51.7,160.3,54.4L160.3,54.4z"/>
		<path class="st9" d="M143.4,58.1v-2.7c0-0.4,0.3-0.8,0.6-1v3.9c-2.7,0.3-5,1.7-5,4.4l0.7,0.5c0-3.2,2.3-4.2,5.1-4.5v-4.5h4.4
			c0.6,0,1.1,0.5,1.1,1.1V58c2.7,0.3,5.1,1.9,5.1,4.7v14.8c0,1-0.6,2-1.9,2h-13.2c-1.3,0-1.9-1.1-1.9-2V62.8
			C138.3,60,140.7,58.5,143.4,58.1L143.4,58.1z"/>
		<path class="st10" d="M146.9,79.6V54.3h2.2c0.6,0,1.1,0.5,1.1,1.1v2.7c2.7,0.3,5.1,1.9,5.1,4.7v14.8c0,1-0.6,2-1.9,2H146.9
			L146.9,79.6z"/>
		<path class="st7" d="M106.7,63.9c7.2-2,11.6-9,10.6-16.2c-1.3,0.3-2.7,0.5-4.1,0.7c-7.6,0.9-13.9-0.4-14.5-2.9
			c1.6,1.9,7.6,2,14.4,0.1c5.1-1.4,9.3-3.6,11.2-5.7c0.9-0.9,1.3-1.8,1-2.6c-0.7-2.5-7.3-2.8-14.8-0.7c-0.3,0.1-0.5,0.1-0.8,0.2
			c-3.3-1.8-7.2-2.4-11.1-1.3c-7.6,2.3-12.2,10.4-10,18.2C90.8,61.5,98.9,66.1,106.7,63.9z"/>
	</g>
</g>
<g id="мытье_окон">
</g>
<g id="уборка_офисов">
</g>
<g id="ежедневнаЯ_комплекснаЯ">
</g>
<g id="спецуслуги">
</g>
<g id="после_пожара">
</g>
<g id="премиум">
</g>
</svg>
