<?xml version="1.0" encoding="utf-8"?>
<!-- Generator: Adobe Illustrator 22.1.0, SVG Export Plug-In . SVG Version: 6.00 Build 0)  -->
<svg version="1.1" id="Слой_1" xmlns="http://www.w3.org/2000/svg" xmlns:xlink="http://www.w3.org/1999/xlink" x="0px" y="0px"
	 viewBox="0 0 201 201" style="enable-background:new 0 0 201 201;" xml:space="preserve">
<style type="text/css">
	.st0{clip-path:url(#SVGID_4_);}
	.st1{clip-path:url(#SVGID_5_);fill:url(#SVGID_6_);}
	.st2{fill:#AFAFAF;}
	.st3{fill:#979695;}
	.st4{fill:#666666;}
	.st5{fill:#B3B3B3;}
	.st6{fill:#838384;}
	.st7{fill:#AAA1CA;}
	.st8{fill:#8975A2;}
	.st9{fill:#FFFFFF;}
</style>
<g id="ЌаправлЯющие_длЯ_монтажной_области">
</g>
<g id="после_ремонта">
	<g>
		<g>
			<defs>
				<polygon id="SVGID_1_" points="1,1 2,1 1,2 				"/>
			</defs>
			<defs>
				<polygon id="SVGID_3_" points="-1,-1 -2,-1 -1,-2 				"/>
			</defs>
			<clipPath id="SVGID_4_">
				<use xlink:href="#SVGID_1_"  style="overflow:visible;"/>
			</clipPath>
			<clipPath id="SVGID_5_" class="st0">
				<use xlink:href="#SVGID_3_"  style="overflow:visible;"/>
			</clipPath>
			
				<linearGradient id="SVGID_6_" gradientUnits="userSpaceOnUse" x1="100.5" y1="1.5" x2="100.5" y2="201.5" gradientTransform="matrix(1 0 0 -1 0 202)">
				<stop  offset="0" style="stop-color:#666666"/>
				<stop  offset="1.018322e-02" style="stop-color:#646464"/>
				<stop  offset="0.2068" style="stop-color:#404040"/>
				<stop  offset="0.4051" style="stop-color:#242424"/>
				<stop  offset="0.6033" style="stop-color:#101010"/>
				<stop  offset="0.8015" style="stop-color:#040404"/>
				<stop  offset="1" style="stop-color:#000000"/>
			</linearGradient>
			<circle class="st1" cx="100.5" cy="100.5" r="100"/>
		</g>
	</g>
	<rect x="38.8" y="153.4" class="st2" width="123.5" height="10.7"/>
	<rect x="44.3" y="71.3" class="st2" width="7.9" height="78.6"/>
	<rect x="48.2" y="71.3" class="st3" width="4" height="78.6"/>
	<rect x="148.8" y="71.3" class="st2" width="7.9" height="78.6"/>
	<rect x="152.8" y="71.3" class="st3" width="4" height="78.6"/>
	<path class="st2" d="M43.5,65.4L99.9,37c0.4-0.2,0.8-0.2,1.1,0l56.5,28.4c1.2,0.6,0.8,2.4-0.6,2.4H44C42.7,67.8,42.3,66,43.5,65.4z
		"/>
	<path class="st4" d="M82.7,106.9l-0.5-0.2c-0.9-0.4-1.4-1.6-1-2.9c0.3-1.1,0.7-2.7,1.5-3.5V106.9L82.7,106.9z"/>
	<polygon class="st5" points="85.6,91.7 85.6,115.1 83.7,115.1 83.7,91.7 85.6,91.7 	"/>
	<path class="st6" d="M84.6,81.2L84.6,81.2c0.5,0,1,0.5,1,1v9h-1.9v-9C83.7,81.6,84.1,81.2,84.6,81.2L84.6,81.2L84.6,81.2z M84.6,82
		L84.6,82c0.2,0,0.3,0.2,0.3,0.3v1.6c0,0.2-0.2,0.3-0.3,0.3l0,0c-0.2,0-0.3-0.2-0.3-0.3v-1.6C84.3,82.1,84.4,82,84.6,82L84.6,82
		L84.6,82z"/>
	<path class="st6" d="M72.8,144.7h23.5c0.6,0,1,0.5,1,1v1.9c0,0.6-0.5,1-1,1h-0.2c0.1-0.2,0.2-0.4,0.2-0.7v-1.6
		c0-0.7-0.6-1.3-1.3-1.3H74.1c-0.7,0-1.3,0.6-1.3,1.3v1.6c0,0.3,0.1,0.5,0.2,0.7h-0.2c-0.6,0-1-0.5-1-1v-1.9
		C71.8,145.1,72.3,144.7,72.8,144.7L72.8,144.7L72.8,144.7z"/>
	<path class="st6" d="M96.5,144.4v-1.2c0-0.2-0.2-0.4-0.4-0.4H73.2c-0.2,0-0.4,0.2-0.4,0.4v1.2c0,0,0,0,0.1,0H96.5
		C96.4,144.4,96.4,144.4,96.5,144.4L96.5,144.4L96.5,144.4z"/>
	<path class="st6" d="M83.1,135.1h3v1.7h-3V135.1L83.1,135.1z M88.3,136.9L88.3,136.9c-0.2,0-0.3,0.1-0.3,0.3h-6.8
		c0-0.2-0.1-0.3-0.3-0.3l0,0c-0.2,0-0.3,0.1-0.3,0.3v5.4h0.6v-0.8H88v0.8h0.6v-5.4C88.6,137,88.5,136.9,88.3,136.9L88.3,136.9
		L88.3,136.9z M86.4,131.8L87,137h0.3l-0.6-5.2C86.7,131.8,86.6,131.8,86.4,131.8L86.4,131.8L86.4,131.8z M85.9,127.4l0.4,3.4h0.1
		c0.1,0,0.2,0,0.2,0l-0.3-2.8C86.2,127.7,86.1,127.5,85.9,127.4L85.9,127.4L85.9,127.4z M82.8,131.8L82.8,131.8
		c-0.1,0-0.2,0-0.3-0.1l-0.6,5.2h0.3L82.8,131.8L82.8,131.8z M83.3,127.3L83.3,127.3c-0.1,0.2-0.3,0.4-0.4,0.6l-0.3,2.9
		c0.1,0,0.2,0,0.3,0H83L83.3,127.3L83.3,127.3z M83.7,124.4v10.2h1.9v-10.2l0.2,1.7l0,0c0.1,0.1,0.2,0.3,0.3,0.4v0.1l-0.4-3.1
		c0-0.2-0.2-0.3-0.2-0.3v-0.5h-1.9v0.5c-0.1-0.1-0.2,0-0.3,0.3l-0.4,3.1l0.1-0.1c0.1-0.1,0.2-0.3,0.3-0.4l0,0L83.7,124.4L83.7,124.4
		z M85.8,131.7c1.6-0.2,3.5-0.8,2.5-2c-0.4-0.5-1.8-2.2-2.5-3v0.3c0.8,1,1.4,2,2.3,3c0.6,0.8-1,1.1-2.3,1.3V131.7L85.8,131.7z
		 M83.4,126.6c-0.7,0.8-2.1,2.6-2.5,3c-1,1.2,0.8,1.8,2.5,2v-0.5c-1.2-0.1-2.9-0.5-2.2-1.3c0.9-1,1.4-2,2.2-3.1V126.6L83.4,126.6z
		 M83.7,115.6v6.8h0.7V120H85v2.3h0.7v-6.8L83.7,115.6L83.7,115.6z"/>
	<path class="st7" d="M74.1,145.3h21.1c0.6,0,1,0.5,1,1v1.6c0,0.6-0.5,1-1,1H74.1c-0.6,0-1-0.5-1-1v-1.6
		C73,145.8,73.5,145.3,74.1,145.3L74.1,145.3L74.1,145.3z"/>
	<path class="st8" d="M84.6,145.3h10.5c0.6,0,1,0.5,1,1v1.6c0,0.6-0.5,1-1,1H84.6V145.3L84.6,145.3z"/>
	<path class="st4" d="M112.6,94h1.4c0.9,0,1.9,0.3,2.7,1.1l10.9,11.3c0.6,0.5,0.8,1.4,0.6,2.2l-1,12.8c-0.1,1.1-0.9,1.9-1.9,1.8
		L123,123c-0.9-0.1-1.7-1.1-1.6-2.2l0.8-10.4l-4-3.9v40.1c0,1.4-1,2.5-2.1,2.5h-3.3c-1.2,0-2.1-1.1-2.1-2.5v-21.9h-2.9v21.9
		c0,1.4-1,2.5-2.1,2.5h-3.3c-1.2,0-2.1-1.1-2.1-2.5l0.1-40.7l-6.1,5.4c-0.6,0.5-1.7,0.4-2.2,0l-5.4-2.5v-7.7l6,2.7l7.9-8
		c1-1,2.2-1.7,4.4-1.7h0.8h6.8V94z"/>
	<path class="st9" d="M100.5,45.8c-12.1,0-21.9,7.4-21.9,16.4h43.7C122.4,53.1,112.6,45.8,100.5,45.8z"/>
	<circle class="st4" cx="108.8" cy="83.6" r="8.9"/>
</g>
<g id="генеральнаЯ">
</g>
<g id="химчистка">
</g>
<g id="эко_клининг">
</g>
<g id="мытье_окон">
</g>
<g id="уборка_офисов">
</g>
<g id="ежедневнаЯ_комплекснаЯ">
</g>
<g id="спецуслуги">
</g>
<g id="после_пожара">
</g>
<g id="премиум">
</g>
</svg>
