<?xml version="1.0" encoding="utf-8"?>
<!-- Generator: Adobe Illustrator 22.1.0, SVG Export Plug-In . SVG Version: 6.00 Build 0)  -->
<svg version="1.1" id="Слой_1" xmlns="http://www.w3.org/2000/svg" xmlns:xlink="http://www.w3.org/1999/xlink" x="0px" y="0px"
	 viewBox="0 0 201 201" style="enable-background:new 0 0 201 201;" xml:space="preserve">
<style type="text/css">
	.st0{clip-path:url(#SVGID_4_);}
	.st1{clip-path:url(#SVGID_5_);fill:url(#SVGID_6_);}
	.st2{fill:#979695;}
	.st3{fill:#AAA1CA;}
	.st4{fill:#838384;}
	.st5{fill:#6B6966;}
	.st6{fill:#8975A2;}
	.st7{fill:#AFAFAF;}
	.st8{fill:#C9C8C8;}
</style>
<g id="ЌаправлЯющие_длЯ_монтажной_области">
</g>
<g id="после_ремонта">
</g>
<g id="генеральнаЯ">
</g>
<g id="химчистка">
</g>
<g id="эко_клининг">
</g>
<g id="мытье_окон">
</g>
<g id="уборка_офисов">
</g>
<g id="ежедневнаЯ_комплекснаЯ">
</g>
<g id="спецуслуги">
</g>
<g id="после_пожара">
</g>
<g id="премиум">
	<g>
		<g>
			<defs>
				<polygon id="SVGID_1_" points="1,1 2,1 1,2 				"/>
			</defs>
			<defs>
				<polygon id="SVGID_3_" points="-1,-1 -2,-1 -1,-2 				"/>
			</defs>
			<clipPath id="SVGID_4_">
				<use xlink:href="#SVGID_1_"  style="overflow:visible;"/>
			</clipPath>
			<clipPath id="SVGID_5_" class="st0">
				<use xlink:href="#SVGID_3_"  style="overflow:visible;"/>
			</clipPath>
			
				<linearGradient id="SVGID_6_" gradientUnits="userSpaceOnUse" x1="100.5" y1="1.5" x2="100.5" y2="201.5" gradientTransform="matrix(1 0 0 -1 0 202)">
				<stop  offset="0" style="stop-color:#666666"/>
				<stop  offset="1.018322e-02" style="stop-color:#646464"/>
				<stop  offset="0.2068" style="stop-color:#404040"/>
				<stop  offset="0.4051" style="stop-color:#242424"/>
				<stop  offset="0.6033" style="stop-color:#101010"/>
				<stop  offset="0.8015" style="stop-color:#040404"/>
				<stop  offset="1" style="stop-color:#000000"/>
			</linearGradient>
			<circle class="st1" cx="100.5" cy="100.5" r="100"/>
		</g>
	</g>
	<g>
		<polygon class="st2" points="131.8,72.9 140.8,73.9 141.2,70.6 120.5,68.2 120.1,71.5 129.1,72.5 125.7,101.4 128.4,101.4 		"/>
		<polygon class="st3" points="140.8,69.3 145.2,60.7 118.9,57.6 121.2,67 		"/>
		<polygon class="st2" points="107.4,98 108.8,101.4 119.4,101.4 107.6,74 105.1,75 114.8,97.6 		"/>
		<path class="st4" d="M132.3,103.4h-29.7h-5.8v3.9h7.9V126h-9.3v2.6h9.3v21.1c1-0.4,2.2-0.6,3.4-0.6c4.5,0,8.2,3.1,9.2,7.3h33.2
			c1.2-1,2.7-1.7,4.3-1.7c1.7,0,3.2,0.6,4.3,1.7h2.5v-4.9h-29.4v-44.3v-1.5v-1L132.3,103.4L132.3,103.4z"/>
		<path class="st2" d="M108.1,150.7c-4.3,0-7.8,3.5-7.8,7.8s3.5,7.8,7.8,7.8s7.8-3.5,7.8-7.8S112.4,150.7,108.1,150.7z M112.5,158.5
			c0,2.4-2,4.4-4.4,4.4s-4.4-2-4.4-4.4s2-4.4,4.4-4.4S112.5,156.1,112.5,158.5z"/>
		<path class="st5" d="M42.4,153.7c-2.2,3.4-1.3,8,2.1,10.2c1.3,0.8,2.7,1.2,4.1,1.2c2.4,0,4.7-1.2,6.2-3.3
			c8.3-12.5,10.9-23.9,10.9-33.4l-17.4-14.1C51.6,122.8,53.6,136.8,42.4,153.7z"/>
		<path class="st5" d="M42.6,108l2.7,2.2l24,19.5l9.7,30.5c1,3.1,3.9,5.2,7,5.2c0.7,0,1.5-0.1,2.2-0.3c3.9-1.2,6-5.4,4.8-9.3
			l-10.3-32.7c-0.4-1.4-1.3-2.6-2.4-3.5l-20.7-16.8l0,0c0.4-1.4,0.8-2.9,1.3-4.3c-1-1.1-1.6-2.5-1.7-4l-0.8-23.7
			c-0.1-3.3,2.5-6.2,5.9-6.3c0.1,0,0.1,0,0.2,0c3.3,0,6,2.6,6.1,5.9l0.3,8.6c0.3-0.5,0.6-1,0.8-1.4c3.5-5,3.6-12.4-0.7-15.2
			c-4.4-2.8-12.2-2.5-17.7,4.7c-7.6,10-10.9,17.1-13.6,30c-0.4,2.9-0.1,5.1,0.6,7C40.5,105.5,41.3,106.9,42.6,108z"/>
		<path class="st2" d="M149.7,161.3c0,2.8,2.3,5,5,5c2.8,0,5-2.3,5-5c0-2.8-2.3-5-5-5S149.7,158.5,149.7,161.3z M157,161.3
			c0,1.2-1,2.2-2.2,2.2s-2.2-1-2.2-2.2s1-2.2,2.2-2.2S157,160.1,157,161.3z"/>
		<path class="st5" d="M64.3,65.8c-2.6,0.1-4.6,2.3-4.5,4.9l0.8,23.7c0.1,1.8,1.2,3.5,2.9,4.2l23.5,9.7c0.6,0.2,1.2,0.4,1.8,0.4
			c1.9,0,3.6-1.1,4.4-2.9c1-2.4-0.1-5.2-2.6-6.2L69.9,91l-0.7-20.7C69.1,67.8,66.9,65.7,64.3,65.8z"/>
		<path class="st5" d="M77.6,61c6.6,1.3,13-2.6,15.1-8.8c-1.2-0.3-2.4-0.7-3.6-1.1c-6.5-2.3-11.1-6-10.5-8.2c0.5,2.2,5.4,4.7,11.6,6
			c4.7,0.9,9,0.9,11.4,0c1.1-0.4,1.8-1,1.9-1.7c0.4-2.3-4.8-5.2-11.6-6.6c-0.2,0-0.5-0.1-0.7-0.1c-1.9-2.8-4.9-4.9-8.4-5.6
			c-7.2-1.4-14.2,3.3-15.6,10.5C65.7,52.6,70.4,59.5,77.6,61z"/>
		<path class="st2" d="M147.5,124.2l5.1-47.3c0.1-0.5-0.3-0.9-0.8-1l0,0c-0.5-0.1-0.9,0.3-1,0.8l-5.1,47.5H147.5z"/>
		<path class="st6" d="M136.6,125.6c-0.7,0-1.2,0.5-1.2,1.2s0.5,1.2,1.2,1.2h0.2l1,21.4H156l0.4-8.8c-5.2-1-9.3-5.2-10.2-10.5
			c-0.6-0.2-1-0.7-1-1.3c0-0.8,0.6-1.4,1.4-1.4c0.8,0,1.4,0.6,1.4,1.4c0,0.5-0.2,0.9-0.6,1.1c0.7,4.7,4.4,8.6,9.1,9.5L157,128h0.2
			c0.7,0,1.2-0.5,1.2-1.2s-0.5-1.2-1.2-1.2C157.2,125.6,136.6,125.6,136.6,125.6z"/>
		<path class="st7" d="M102.6,103.4h-5.8v3.9h7.9V126h-9.3v2.6h9.3v21.1c1-0.4,2.2-0.6,3.4-0.6c4.5,0,8.2,3.1,9.2,7.3h1.3v-53.1
			L102.6,103.4L102.6,103.4z"/>
		<path class="st8" d="M132.3,151.6v-44.3v-1.5v-1v-1.4h-13.7v53.1h31.9c1.2-1,2.7-1.7,4.3-1.7c1.7,0,3.2,0.6,4.3,1.7h2.5v-4.9
			H132.3z"/>
	</g>
</g>
</svg>
